<svg width="58" height="44" viewBox="0 0 58 44" fill="none" xmlns="http://www.w3.org/2000/svg">
<path d="M9.197 20.753C9.28567 20.753 9.36267 20.788 9.428 20.858L10.079 21.565C9.66833 22.0597 9.16433 22.4423 8.567 22.713C7.96967 22.979 7.25567 23.112 6.425 23.112C5.68767 23.112 5.02033 22.986 4.423 22.734C3.83033 22.4773 3.324 22.1227 2.904 21.67C2.484 21.2127 2.15967 20.669 1.931 20.039C1.707 19.409 1.595 18.716 1.595 17.96C1.595 17.204 1.714 16.511 1.952 15.881C2.19467 15.2463 2.533 14.7027 2.967 14.25C3.40567 13.7927 3.92833 13.438 4.535 13.186C5.14633 12.934 5.81833 12.808 6.551 12.808C7.279 12.808 7.92067 12.927 8.476 13.165C9.036 13.3983 9.52133 13.711 9.932 14.103L9.393 14.866C9.35567 14.9173 9.31133 14.9617 9.26 14.999C9.20867 15.0363 9.13867 15.055 9.05 15.055C8.95667 15.055 8.84933 15.013 8.728 14.929C8.61133 14.8403 8.45967 14.7447 8.273 14.642C8.091 14.5347 7.86 14.439 7.58 14.355C7.30467 14.2663 6.95933 14.222 6.544 14.222C6.06333 14.222 5.62233 14.306 5.221 14.474C4.81967 14.642 4.47433 14.887 4.185 15.209C3.89567 15.531 3.66933 15.923 3.506 16.385C3.34733 16.847 3.268 17.372 3.268 17.96C3.268 18.5527 3.352 19.0823 3.52 19.549C3.688 20.011 3.919 20.403 4.213 20.725C4.507 21.0423 4.85233 21.285 5.249 21.453C5.64567 21.621 6.07267 21.705 6.53 21.705C6.81 21.705 7.05967 21.691 7.279 21.663C7.503 21.6303 7.70833 21.5813 7.895 21.516C8.08167 21.446 8.25667 21.3597 8.42 21.257C8.588 21.1543 8.75367 21.0283 8.917 20.879C9.01033 20.795 9.10367 20.753 9.197 20.753ZM14.1505 15.748C14.6778 15.748 15.1538 15.8343 15.5785 16.007C16.0078 16.1797 16.3718 16.4247 16.6705 16.742C16.9738 17.0593 17.2072 17.4443 17.3705 17.897C17.5338 18.3497 17.6155 18.8583 17.6155 19.423C17.6155 19.9877 17.5338 20.4963 17.3705 20.949C17.2072 21.4017 16.9738 21.789 16.6705 22.111C16.3718 22.4283 16.0078 22.6733 15.5785 22.846C15.1538 23.0187 14.6778 23.105 14.1505 23.105C13.6185 23.105 13.1378 23.0187 12.7085 22.846C12.2838 22.6733 11.9198 22.4283 11.6165 22.111C11.3132 21.789 11.0798 21.4017 10.9165 20.949C10.7532 20.4963 10.6715 19.9877 10.6715 19.423C10.6715 18.8583 10.7532 18.3497 10.9165 17.897C11.0798 17.4443 11.3132 17.0593 11.6165 16.742C11.9198 16.4247 12.2838 16.1797 12.7085 16.007C13.1378 15.8343 13.6185 15.748 14.1505 15.748ZM14.1505 21.929C14.7945 21.929 15.2728 21.7143 15.5855 21.285C15.9028 20.851 16.0615 20.2327 16.0615 19.43C16.0615 18.6273 15.9028 18.009 15.5855 17.575C15.2728 17.1363 14.7945 16.917 14.1505 16.917C13.4972 16.917 13.0118 17.1363 12.6945 17.575C12.3772 18.009 12.2185 18.6273 12.2185 19.43C12.2185 20.2327 12.3772 20.851 12.6945 21.285C13.0118 21.7143 13.4972 21.929 14.1505 21.929ZM20.4685 16.805C20.6225 16.6463 20.7812 16.504 20.9445 16.378C21.1125 16.2473 21.2899 16.1353 21.4765 16.042C21.6632 15.9487 21.8615 15.8763 22.0715 15.825C22.2815 15.7737 22.5102 15.748 22.7575 15.748C23.1495 15.748 23.4925 15.8133 23.7865 15.944C24.0852 16.0747 24.3349 16.259 24.5355 16.497C24.7409 16.735 24.8949 17.022 24.9975 17.358C25.1002 17.6893 25.1515 18.0557 25.1515 18.457V23H23.6535V18.457C23.6535 17.9763 23.5415 17.603 23.3175 17.337C23.0982 17.071 22.7622 16.938 22.3095 16.938C21.9735 16.938 21.6609 17.015 21.3715 17.169C21.0869 17.323 20.8185 17.533 20.5665 17.799V23H19.0615V15.86H19.9715C20.1769 15.86 20.3075 15.9557 20.3635 16.147L20.4685 16.805ZM29.1025 23.112C28.5098 23.112 28.0525 22.9463 27.7305 22.615C27.4132 22.279 27.2545 21.8077 27.2545 21.201V17.043H26.4705C26.3865 17.043 26.3142 17.0173 26.2535 16.966C26.1928 16.91 26.1625 16.8283 26.1625 16.721V16.112L27.3175 15.944L27.6465 13.879C27.6698 13.7997 27.7095 13.7367 27.7655 13.69C27.8215 13.6387 27.8962 13.613 27.9895 13.613H28.7595V15.958H30.7405V17.043H28.7595V21.096C28.7595 21.3527 28.8225 21.5487 28.9485 21.684C29.0745 21.8193 29.2425 21.887 29.4525 21.887C29.5692 21.887 29.6695 21.873 29.7535 21.845C29.8375 21.8123 29.9098 21.7797 29.9705 21.747C30.0312 21.7097 30.0825 21.677 30.1245 21.649C30.1712 21.6163 30.2155 21.6 30.2575 21.6C30.3415 21.6 30.4092 21.6467 30.4605 21.74L30.9085 22.475C30.6752 22.6803 30.3998 22.839 30.0825 22.951C29.7652 23.0583 29.4385 23.112 29.1025 23.112ZM35.7418 19.878C35.2051 19.8967 34.7524 19.941 34.3838 20.011C34.0151 20.0763 33.7164 20.1627 33.4878 20.27C33.2591 20.3727 33.0934 20.4963 32.9908 20.641C32.8928 20.7857 32.8438 20.9443 32.8438 21.117C32.8438 21.285 32.8694 21.4297 32.9208 21.551C32.9768 21.6677 33.0514 21.7657 33.1448 21.845C33.2428 21.9197 33.3548 21.9757 33.4808 22.013C33.6114 22.0457 33.7538 22.062 33.9078 22.062C34.2998 22.062 34.6358 21.9897 34.9158 21.845C35.2004 21.6957 35.4758 21.481 35.7418 21.201V19.878ZM31.7518 16.854C32.5591 16.1027 33.5204 15.727 34.6358 15.727C35.0464 15.727 35.4104 15.7947 35.7278 15.93C36.0498 16.0607 36.3181 16.2473 36.5328 16.49C36.7521 16.7327 36.9178 17.022 37.0298 17.358C37.1464 17.6893 37.2048 18.058 37.2048 18.464V23H36.5328C36.3881 23 36.2784 22.979 36.2038 22.937C36.1291 22.8903 36.0661 22.7993 36.0148 22.664L35.8678 22.083C35.6858 22.2463 35.5061 22.3933 35.3288 22.524C35.1514 22.65 34.9671 22.7573 34.7758 22.846C34.5891 22.9347 34.3861 23 34.1668 23.042C33.9521 23.0887 33.7141 23.112 33.4528 23.112C33.1634 23.112 32.8928 23.0723 32.6408 22.993C32.3934 22.9137 32.1788 22.7947 31.9968 22.636C31.8148 22.4727 31.6701 22.272 31.5628 22.034C31.4601 21.796 31.4088 21.516 31.4088 21.194C31.4088 20.9187 31.4811 20.6503 31.6258 20.389C31.7751 20.1277 32.0178 19.8943 32.3538 19.689C32.6944 19.479 33.1401 19.3063 33.6908 19.171C34.2461 19.0357 34.9298 18.9587 35.7418 18.94V18.464C35.7418 17.9507 35.6321 17.568 35.4128 17.316C35.1934 17.064 34.8714 16.938 34.4468 16.938C34.1574 16.938 33.9148 16.9753 33.7188 17.05C33.5228 17.12 33.3524 17.197 33.2078 17.281C33.0631 17.365 32.9348 17.4443 32.8228 17.519C32.7108 17.589 32.5918 17.624 32.4658 17.624C32.3631 17.624 32.2744 17.5983 32.1998 17.547C32.1298 17.491 32.0714 17.4233 32.0248 17.344L31.7518 16.854ZM44.0148 17.26C43.9681 17.3207 43.9238 17.3673 43.8818 17.4C43.8398 17.4327 43.7791 17.449 43.6998 17.449C43.6204 17.449 43.5364 17.421 43.4478 17.365C43.3638 17.309 43.2611 17.2483 43.1398 17.183C43.0231 17.113 42.8808 17.05 42.7128 16.994C42.5448 16.938 42.3348 16.91 42.0828 16.91C41.7561 16.91 41.4691 16.9683 41.2218 17.085C40.9791 17.2017 40.7738 17.3697 40.6058 17.589C40.4424 17.8037 40.3188 18.0673 40.2348 18.38C40.1554 18.688 40.1158 19.0357 40.1158 19.423C40.1158 19.8243 40.1601 20.1813 40.2488 20.494C40.3374 20.8067 40.4634 21.0703 40.6268 21.285C40.7948 21.4997 40.9954 21.663 41.2288 21.775C41.4668 21.887 41.7328 21.943 42.0268 21.943C42.3161 21.943 42.5518 21.908 42.7338 21.838C42.9158 21.768 43.0674 21.691 43.1888 21.607C43.3101 21.523 43.4128 21.446 43.4968 21.376C43.5854 21.306 43.6788 21.271 43.7768 21.271C43.8981 21.271 43.9914 21.3177 44.0568 21.411L44.4838 21.964C44.3111 22.174 44.1198 22.3513 43.9098 22.496C43.6998 22.6407 43.4781 22.7597 43.2448 22.853C43.0114 22.9417 42.7688 23.0047 42.5168 23.042C42.2648 23.084 42.0104 23.105 41.7538 23.105C41.3104 23.105 40.8951 23.0233 40.5078 22.86C40.1251 22.692 39.7891 22.4517 39.4998 22.139C39.2151 21.8217 38.9888 21.4367 38.8208 20.984C38.6574 20.5267 38.5758 20.0063 38.5758 19.423C38.5758 18.8957 38.6504 18.408 38.7998 17.96C38.9491 17.5073 39.1661 17.1177 39.4508 16.791C39.7401 16.4643 40.0971 16.21 40.5218 16.028C40.9464 15.8413 41.4364 15.748 41.9918 15.748C42.5098 15.748 42.9648 15.832 43.3568 16C43.7534 16.168 44.1058 16.406 44.4138 16.714L44.0148 17.26ZM47.9833 23.112C47.3907 23.112 46.9333 22.9463 46.6113 22.615C46.294 22.279 46.1353 21.8077 46.1353 21.201V17.043H45.3513C45.2673 17.043 45.195 17.0173 45.1343 16.966C45.0737 16.91 45.0433 16.8283 45.0433 16.721V16.112L46.1983 15.944L46.5273 13.879C46.5507 13.7997 46.5903 13.7367 46.6463 13.69C46.7023 13.6387 46.777 13.613 46.8703 13.613H47.6403V15.958H49.6213V17.043H47.6403V21.096C47.6403 21.3527 47.7033 21.5487 47.8293 21.684C47.9553 21.8193 48.1233 21.887 48.3333 21.887C48.45 21.887 48.5503 21.873 48.6343 21.845C48.7183 21.8123 48.7907 21.7797 48.8513 21.747C48.912 21.7097 48.9633 21.677 49.0053 21.649C49.052 21.6163 49.0963 21.6 49.1383 21.6C49.2223 21.6 49.29 21.6467 49.3413 21.74L49.7893 22.475C49.556 22.6803 49.2807 22.839 48.9633 22.951C48.646 23.0583 48.3193 23.112 47.9833 23.112ZM55.0706 17.155C55.0333 17.2203 54.9913 17.267 54.9446 17.295C54.898 17.323 54.8396 17.337 54.7696 17.337C54.6903 17.337 54.604 17.3137 54.5106 17.267C54.4173 17.2157 54.3076 17.1597 54.1816 17.099C54.0556 17.0383 53.9063 16.9847 53.7336 16.938C53.5656 16.8867 53.3673 16.861 53.1386 16.861C52.952 16.861 52.7816 16.8843 52.6276 16.931C52.4783 16.973 52.35 17.036 52.2426 17.12C52.14 17.1993 52.0606 17.295 52.0046 17.407C51.9486 17.5143 51.9206 17.631 51.9206 17.757C51.9206 17.925 51.972 18.065 52.0746 18.177C52.1773 18.289 52.3126 18.387 52.4806 18.471C52.6486 18.5503 52.84 18.6227 53.0546 18.688C53.2693 18.7533 53.4886 18.8233 53.7126 18.898C53.9366 18.9727 54.156 19.059 54.3706 19.157C54.5853 19.255 54.7766 19.3763 54.9446 19.521C55.1126 19.661 55.248 19.8337 55.3506 20.039C55.4533 20.2397 55.5046 20.4847 55.5046 20.774C55.5046 21.11 55.444 21.4203 55.3226 21.705C55.2013 21.9897 55.024 22.237 54.7906 22.447C54.5573 22.657 54.2656 22.8203 53.9156 22.937C53.5703 23.0537 53.1736 23.112 52.7256 23.112C52.4783 23.112 52.238 23.0887 52.0046 23.042C51.776 23 51.5566 22.9417 51.3466 22.867C51.1413 22.7877 50.9476 22.6943 50.7656 22.587C50.5883 22.4797 50.4296 22.363 50.2896 22.237L50.6396 21.663C50.6816 21.593 50.733 21.5393 50.7936 21.502C50.859 21.46 50.9383 21.439 51.0316 21.439C51.1296 21.439 51.2253 21.4717 51.3186 21.537C51.4166 21.5977 51.5286 21.6653 51.6546 21.74C51.7853 21.8147 51.9416 21.8847 52.1236 21.95C52.3056 22.0107 52.532 22.041 52.8026 22.041C53.0266 22.041 53.2203 22.0153 53.3836 21.964C53.547 21.908 53.6823 21.8333 53.7896 21.74C53.897 21.6467 53.9763 21.5417 54.0276 21.425C54.079 21.3037 54.1046 21.1753 54.1046 21.04C54.1046 20.858 54.0533 20.7087 53.9506 20.592C53.848 20.4753 53.7103 20.375 53.5376 20.291C53.3696 20.207 53.176 20.1323 52.9566 20.067C52.742 20.0017 52.5226 19.9317 52.2986 19.857C52.0746 19.7823 51.853 19.696 51.6336 19.598C51.419 19.5 51.2253 19.3763 51.0526 19.227C50.8846 19.073 50.7493 18.8887 50.6466 18.674C50.544 18.4547 50.4926 18.1887 50.4926 17.876C50.4926 17.5913 50.5486 17.3207 50.6606 17.064C50.7773 16.8073 50.9453 16.581 51.1646 16.385C51.3886 16.189 51.6616 16.035 51.9836 15.923C52.3103 15.8063 52.686 15.748 53.1106 15.748C53.5913 15.748 54.0276 15.825 54.4196 15.979C54.8116 16.133 55.1406 16.343 55.4066 16.609L55.0706 17.155Z" fill="#0F1828"/>
<circle cx="29" cy="36" r="2" fill="#0F1828"/>
</svg>
